<svg width="107" height="86" viewBox="0 0 107 86" fill="none" xmlns="http://www.w3.org/2000/svg">
<path d="M21.8112 75.8638L21.8112 13.9766" stroke="#1E2772" stroke-width="4" stroke-linecap="round"/>
<path d="M32.2382 83.895L32.2382 2" stroke="#73219A" stroke-width="4" stroke-linecap="round"/>
<path d="M42.6652 72.8973L42.6652 16.9708" stroke="#1E2772" stroke-width="4" stroke-linecap="round"/>
<path d="M2 68.0308V17.9688" stroke="#1E2772" stroke-width="4" stroke-linecap="round"/>
<path d="M11.3843 84L11.3843 5.9922" stroke="#73219A" stroke-width="4" stroke-linecap="round"/>
<path d="M62.3936 50.75C62.3936 53.8833 63.0102 56.3 64.2436 58C65.5102 59.6667 67.4436 60.5 70.0436 60.5C71.1769 60.5 72.2936 60.3667 73.3936 60.1C74.4936 59.8333 75.8102 59.3667 77.3436 58.7L78.7936 62.4C77.1602 63.1333 75.6102 63.6667 74.1436 64C72.6769 64.3333 71.2602 64.5 69.8936 64.5C65.9602 64.5 62.9769 63.2667 60.9436 60.8C58.9102 58.3333 57.8936 54.9833 57.8936 50.75V43.25C57.8936 39.0167 58.9102 35.6667 60.9436 33.2C62.9769 30.7333 65.9602 29.5 69.8936 29.5C71.2602 29.5 72.6769 29.6667 74.1436 30C75.6436 30.3333 77.1602 30.8667 78.6936 31.6L77.2936 35.35C74.5936 34.15 72.1769 33.55 70.0436 33.55C67.4436 33.55 65.5102 34.3833 64.2436 36.05C63.0102 37.7167 62.3936 40.1167 62.3936 43.25V50.75ZM85.9084 64V30H95.9084C99.1751 30 101.575 30.8 103.108 32.4C104.675 33.9667 105.458 36.0833 105.458 38.75V39.85C105.458 41.3167 105.125 42.6167 104.458 43.75C103.792 44.8833 102.825 45.7833 101.558 46.45C103.325 47.0167 104.658 47.95 105.558 49.25C106.492 50.5167 106.958 52.05 106.958 53.85V54.95C106.958 57.6833 106.158 59.8833 104.558 61.55C102.992 63.1833 100.525 64 97.1584 64H85.9084ZM95.9084 34H90.2584V44.75H95.9084C97.5751 44.75 98.8251 44.3333 99.6584 43.5C100.525 42.6333 100.958 41.45 100.958 39.95V38.75C100.958 37.2833 100.525 36.1333 99.6584 35.3C98.8251 34.4333 97.5751 34 95.9084 34ZM97.1584 48.75H90.2584V60.05H97.1584C98.9251 60.05 100.242 59.6 101.108 58.7C102.008 57.8 102.458 56.55 102.458 54.95V53.75C102.458 52.2167 102.008 51 101.108 50.1C100.242 49.2 98.9251 48.75 97.1584 48.75Z" fill="#251E4F"/>
</svg>
