<svg width="20" height="20" viewBox="0 0 20 20" fill="none" xmlns="http://www.w3.org/2000/svg">
<path d="M10.4917 10.8334L8.57502 12.7417C8.49691 12.8192 8.43492 12.9113 8.39261 13.0129C8.3503 13.1144 8.32852 13.2234 8.32852 13.3334C8.32852 13.4434 8.3503 13.5523 8.39261 13.6539C8.43492 13.7554 8.49691 13.8476 8.57502 13.925C8.65249 14.0031 8.74466 14.0651 8.84621 14.1075C8.94776 14.1498 9.05668 14.1715 9.16669 14.1715C9.2767 14.1715 9.38562 14.1498 9.48717 14.1075C9.58872 14.0651 9.68088 14.0031 9.75835 13.925L13.0917 10.5917C13.1676 10.5125 13.227 10.419 13.2667 10.3167C13.35 10.1138 13.35 9.88626 13.2667 9.68338C13.227 9.58108 13.1676 9.48763 13.0917 9.40838L9.75835 6.07504C9.68066 5.99734 9.58841 5.93571 9.4869 5.89366C9.38538 5.85161 9.27657 5.82997 9.16669 5.82997C9.0568 5.82997 8.948 5.85161 8.84648 5.89366C8.74496 5.93571 8.65272 5.99734 8.57502 6.07504C8.49732 6.15274 8.43569 6.24498 8.39364 6.3465C8.35159 6.44802 8.32994 6.55683 8.32994 6.66671C8.32994 6.77659 8.35159 6.8854 8.39364 6.98692C8.43569 7.08844 8.49732 7.18068 8.57502 7.25838L10.4917 9.16671H2.50002C2.27901 9.16671 2.06704 9.25451 1.91076 9.41079C1.75448 9.56707 1.66669 9.77903 1.66669 10C1.66669 10.2211 1.75448 10.433 1.91076 10.5893C2.06704 10.7456 2.27901 10.8334 2.50002 10.8334H10.4917ZM10 1.66671C8.4426 1.65976 6.91439 2.08939 5.58874 2.90687C4.2631 3.72435 3.19307 4.89697 2.50002 6.29171C2.40056 6.49062 2.3842 6.7209 2.45453 6.93187C2.52485 7.14285 2.67611 7.31725 2.87502 7.41671C3.07393 7.51616 3.30421 7.53253 3.51519 7.4622C3.72616 7.39188 3.90056 7.24062 4.00002 7.04171C4.52685 5.97781 5.32821 5.07389 6.32131 4.42337C7.31441 3.77284 8.46321 3.39931 9.64898 3.34137C10.8348 3.28343 12.0145 3.54319 13.0663 4.0938C14.1181 4.64441 15.0037 5.4659 15.6318 6.47337C16.2598 7.48084 16.6074 8.63775 16.6387 9.82453C16.67 11.0113 16.3837 12.1849 15.8096 13.2241C15.2355 14.2632 14.3943 15.1302 13.373 15.7354C12.3516 16.3406 11.1872 16.6621 10 16.6667C8.75742 16.6721 7.53848 16.327 6.4831 15.6711C5.42771 15.0152 4.57865 14.0749 4.03335 12.9584C3.9339 12.7595 3.7595 12.6082 3.54852 12.5379C3.33754 12.4676 3.10727 12.4839 2.90835 12.5834C2.70944 12.6828 2.55818 12.8572 2.48786 13.0682C2.41753 13.2792 2.4339 13.5095 2.53335 13.7084C3.19404 15.038 4.19795 16.1669 5.44125 16.9784C6.68454 17.7899 8.12206 18.2545 9.60512 18.3242C11.0882 18.3939 12.5629 18.066 13.8768 17.3746C15.1907 16.6832 16.296 15.6534 17.0784 14.3916C17.8608 13.1298 18.2919 11.6818 18.3271 10.1975C18.3623 8.71327 18.0003 7.24654 17.2786 5.94907C16.5568 4.6516 15.5016 3.57051 14.2219 2.81763C12.9423 2.06475 11.4847 1.66741 10 1.66671V1.66671Z" fill="black"/>
</svg>
